HIERARCHY
ROOT Root
{
	OFFSET 0.00000 0.00000 0.00000
	CHANNELS 6 Xposition Yposition Zposition Zrotation Xrotation Yrotation
	JOINT Hips
	{
		OFFSET 0 0 0	
		CHANNELS 3 Zrotation Xrotation Yrotation
		JOINT Spine
		{
			OFFSET 0 4 0	
			CHANNELS 3 Zrotation Xrotation Yrotation
			JOINT Spine1
			{
				OFFSET 0 19.4 0	
				CHANNELS 3 Zrotation Xrotation Yrotation
				JOINT Spine2
				{
					OFFSET 0 16.6 0	
					CHANNELS 3 Zrotation Xrotation Yrotation
					JOINT LeftCollar
					{
						OFFSET 0 10 0	
						CHANNELS 3 Zrotation Xrotation Yrotation
						JOINT LeftArm
						{
							OFFSET 15.6 -2 3	
							CHANNELS 3 Zrotation Xrotation Yrotation
							JOINT LeftForeArm
							{
								OFFSET 3.5 -27 -1	
								CHANNELS 3 Zrotation Xrotation Yrotation
								JOINT LeftHand
								{
									OFFSET 1 -27 1	
									CHANNELS 3 Zrotation Xrotation Yrotation
									End Site
									{
										OFFSET 0 -15 0
									}
								}
							}
						}
					}
					JOINT RightCollar
					{
						OFFSET 0 10 0	
						CHANNELS 3 Zrotation Xrotation Yrotation
						JOINT RightArm
						{
							OFFSET -15.6 -2 3	
							CHANNELS 3 Zrotation Xrotation Yrotation
							JOINT RightForeArm
							{
								OFFSET -3.5 -27 -1	
								CHANNELS 3 Zrotation Xrotation Yrotation
								JOINT RightHand
								{
									OFFSET -1 -27 1	
									CHANNELS 3 Zrotation Xrotation Yrotation
									End Site
									{
										OFFSET 0 -15 0
									}
								}
							}
						}
					}
					JOINT Neck
					{
						OFFSET 0 10 0	
						CHANNELS 3 Zrotation Xrotation Yrotation
						JOINT Head
						{
							OFFSET 0 12.7 3	
							CHANNELS 3 Zrotation Xrotation Yrotation
							End Site
							{
								OFFSET 0 12.7 3
							}
						}
					}
				}
			}
		}
	}
	JOINT LeftHip
	{
		OFFSET 0 0 0	
		CHANNELS 3 Zrotation Xrotation Yrotation
		JOINT LeftUpLeg
		{
			OFFSET 8.8 -6 0	
			CHANNELS 3 Zrotation Xrotation Yrotation
			JOINT LeftLeg
			{
				OFFSET 0 -39 2	
				CHANNELS 3 Zrotation Xrotation Yrotation
				JOINT LeftFoot
				{
					OFFSET 0 -43 -2	
					CHANNELS 3 Zrotation Xrotation Yrotation
					JOINT LeftFootFront
					{
						OFFSET 0 -7 8.5	
						CHANNELS 3 Zrotation Xrotation Yrotation
						End Site
						{
							OFFSET 0 -0.5 9
						}
					}
				}
				JOINT LeftHeel
				{
					OFFSET 0 -43 -2	
					CHANNELS 3 Zrotation Xrotation Yrotation
					End Site
					{
						OFFSET 0 -7.5 -5
					}
				}
			}
		}
	}
	JOINT RightHip
	{
		OFFSET 0 0 0	
		CHANNELS 3 Zrotation Xrotation Yrotation
		JOINT RightUpLeg
		{
			OFFSET -8.8 -6 0	
			CHANNELS 3 Zrotation Xrotation Yrotation
			JOINT RightLeg
			{
				OFFSET 0 -39 2	
				CHANNELS 3 Zrotation Xrotation Yrotation
				JOINT RightFoot
				{
					OFFSET 0 -43 -2	
					CHANNELS 3 Zrotation Xrotation Yrotation
					JOINT RightFootFront
					{
						OFFSET 0 -7 8.5	
						CHANNELS 3 Zrotation Xrotation Yrotation
						End Site
						{
							OFFSET 0 -0.5 9
						}
					}
				}
				JOINT RightHeel
				{
					OFFSET 0 -43 -2	
					CHANNELS 3 Zrotation Xrotation Yrotation
					End Site
					{
						OFFSET 0 -7.5 -5
					}
				}
			}
		}
	}
}
MOTION
Frames: 16
Frame Time: 0.05
0 95.5 0 -0 0 -0 -0 0 -0 -0 0 -0 -0.71193 0.70177 -5.5454 -0 0 -0 -0 0 -0 6.456 0.00023561 -4.635 -12.544 -2.3201 6.038 -2.4743 -0.027798 -0.12981 -0 0 -0 0.96373 -1.0091 -4.8621 0.49188 -0.96768 -5.426 -1.9233 0.7079 -4.6212 -3.4592 3.8566 -4.6666 -3.4592 3.8566 -4.6666 -0 0 -0 -0 0 -0 -0 0 -0 -0 0 -0 -0 0 -0 -0 0 -0 -0 0 -0 -0 0 -0 -0 0 -0 -0 0 -0 -0 0 -0 -0 0 -0 
0 95.5 0 -0 0 -0 -0 0 -0 -0 0 -0 -0.6606 0.66771 -5.4703 -0 0 -0 -0 0 -0 6.4308 0.13882 -4.6235 -12.702 -2.3354 6.9113 -3.0524 -0.21508 -0.92913 -0 0 -0 0.88444 -1.0228 -4.8781 0.4776 -0.69289 -5.9691 -2.0292 0.90359 -4.138 -3.4999 3.5322 -4.7342 -3.4999 3.5322 -4.7342 -0 0 -0 -0 0 -0 -0 0 -0 -0 0 -0 -0 0 -0 -0 0 -0 -0 0 -0 -0 0 -0 -0 0 -0 -0 0 -0 -0 0 -0 -0 0 -0 
0 95.5 0 -0 0 -0 -0 0 -0 -0 0 -0 -0.67255 0.53542 -5.4988 -0 0 -0 -0 0 -0 6.4611 0.39913 -4.5183 -12.798 -2.3119 7.9563 -3.6155 -0.3351 -1.6931 -0 0 -0 0.84637 -1.0161 -4.8537 0.36584 -0.25267 -6.411 -1.9076 0.63625 -3.8541 -3.5179 3.3526 -4.7725 -3.5179 3.3526 -4.7725 -0 0 -0 -0 0 -0 -0 0 -0 -0 0 -0 -0 0 -0 -0 0 -0 -0 0 -0 -0 0 -0 -0 0 -0 -0 0 -0 -0 0 -0 -0 0 -0 
0 95.5 0 -0 0 -0 -0 0 -0 -0 0 -0 -0.66889 0.35479 -5.5196 -0 0 -0 -0 0 -0 6.4671 0.61459 -4.4637 -12.472 -1.9801 9.6671 -3.8403 -0.13886 -1.9198 -0 0 -0 0.81598 -0.84304 -5.0673 0.27886 -0.12012 -6.4304 -1.9111 0.43841 -3.663 -3.545 3.8294 -4.9658 -3.545 3.8294 -4.9658 -0 0 -0 -0 0 -0 -0 0 -0 -0 0 -0 -0 0 -0 -0 0 -0 -0 0 -0 -0 0 -0 -0 0 -0 -0 0 -0 -0 0 -0 -0 0 -0 
0 95.5 0 -0 0 -0 -0 0 -0 -0 0 -0 -0.57243 0.53249 -5.6188 -0 0 -0 -0 0 -0 6.426 0.32477 -4.3673 -11.895 -1.6193 10.785 -3.5741 0.066137 -1.175 -0 0 -0 0.77346 -0.87254 -5.1926 0.41321 -0.35317 -6.2652 -2.5037 0.60558 -3.3422 -3.7889 3.9725 -5.1084 -3.7889 3.9725 -5.1084 -0 0 -0 -0 0 -0 -0 0 -0 -0 0 -0 -0 0 -0 -0 0 -0 -0 0 -0 -0 0 -0 -0 0 -0 -0 0 -0 -0 0 -0 -0 0 -0 
0 95.5 0 -0 0 -0 -0 0 -0 -0 0 -0 -0.48361 0.79343 -5.8923 -0 0 -0 -0 0 -0 6.4118 -0.056341 -4.1447 -11.285 -1.3234 11.194 -3.3616 -0.060997 -0.60297 -0 0 -0 0.71293 -1.0089 -4.7704 0.51397 -0.50392 -6.1964 -3.6269 0.79011 -3.2031 -4.1821 3.3651 -4.8707 -4.1821 3.3651 -4.8707 -0 0 -0 -0 0 -0 -0 0 -0 -0 0 -0 -0 0 -0 -0 0 -0 -0 0 -0 -0 0 -0 -0 0 -0 -0 0 -0 -0 0 -0 -0 0 -0 
0 95.5 0 -0 0 -0 -0 0 -0 -0 0 -0 -0.53656 0.81515 -5.9708 -0 0 -0 -0 0 -0 6.5055 -0.1083 -4.1513 -10.624 -0.97271 11.227 -3.4489 -0.25118 -0.4368 -0 0 -0 0.66748 -1.0342 -4.4957 0.53559 -0.43862 -6.1858 -5.3474 0.28295 -3.3609 -4.5023 3.0637 -4.7645 -4.5022 3.0637 -4.7645 -0 0 -0 -0 0 -0 -0 0 -0 -0 0 -0 -0 0 -0 -0 0 -0 -0 0 -0 -0 0 -0 -0 0 -0 -0 0 -0 -0 0 -0 -0 0 -0 
0 95.5 0 -0 0 -0 -0 0 -0 -0 0 -0 -0.62329 0.65898 -5.9535 -0 0 -0 -0 0 -0 6.5838 0.075554 -4.2542 -9.6522 -0.20394 10.761 -3.1288 -0.29761 -0.43247 -0 0 -0 0.46343 -0.86475 -4.4813 0.74052 -0.55517 -5.8267 -6.4118 -1.206 -4.7993 -4.7638 3.2456 -4.9749 -4.7638 3.2456 -4.9749 -0 0 -0 -0 0 -0 -0 0 -0 -0 0 -0 -0 0 -0 -0 0 -0 -0 0 -0 -0 0 -0 -0 0 -0 -0 0 -0 -0 0 -0 -0 0 -0 
0 95.5 0 -0 0 -0 -0 0 -0 -0 0 -0 -0.58579 0.62599 -6.0831 -0 0 -0 -0 0 -0 6.5361 0.13107 -4.2176 -9.6873 -0.043765 10.727 -2.8705 -0.20289 -0.48929 -0 0 -0 -0.1152 -0.63191 -4.1079 1.1339 -1.3512 -5.2106 -5.0149 -2.9486 -7.5913 -5.1193 3.1057 -5.0701 -5.1193 3.1057 -5.0701 -0 0 -0 -0 0 -0 -0 0 -0 -0 0 -0 -0 0 -0 -0 0 -0 -0 0 -0 -0 0 -0 -0 0 -0 -0 0 -0 -0 0 -0 -0 0 -0 
0 95.5 0 -0 0 -0 -0 0 -0 -0 0 -0 -0.54682 0.66223 -6.2633 -0 0 -0 -0 0 -0 6.5181 0.13939 -4.073 -9.904 -0.039691 10.29 -2.88 -0.11405 -0.36872 -0 0 -0 -0.85168 -0.45445 -3.7899 2.0931 -3.2309 -5.4919 -1.4864 -4.7057 -8.7305 -5.5215 2.7002 -4.7662 -5.5215 2.7002 -4.7662 -0 0 -0 -0 0 -0 -0 0 -0 -0 0 -0 -0 0 -0 -0 0 -0 -0 0 -0 -0 0 -0 -0 0 -0 -0 0 -0 -0 0 -0 -0 0 -0 
0 95.5 0 -0 0 -0 -0 0 -0 -0 0 -0 -0.62342 0.40043 -6.4976 -0 0 -0 -0 0 -0 6.5671 0.4886 -3.9025 -10.235 -0.29633 9.5773 -2.8168 0.033244 -0.35118 -0 0 -0 -1.8952 -0.0075336 -4.075 4.2688 -6.9069 -6.5219 3.7388 -6.322 -6.4202 -5.84 2.9097 -4.2076 -5.84 2.9097 -4.2076 -0 0 -0 -0 0 -0 -0 0 -0 -0 0 -0 -0 0 -0 -0 0 -0 -0 0 -0 -0 0 -0 -0 0 -0 -0 0 -0 -0 0 -0 -0 0 -0 
0 95.5 0 -0 0 -0 -0 0 -0 -0 0 -0 -0.75703 0.12165 -6.7264 -0 0 -0 -0 0 -0 6.6562 0.86157 -3.7603 -11.39 -1.6681 9.0745 -2.1984 1.1321 -0.58871 -0 0 -0 -2.7112 0.19815 -5.154 7.8047 -12.704 -6.6331 9.0208 -6.5693 -1.9543 -6.0131 3.7396 -3.7329 -6.0131 3.7396 -3.7329 -0 0 -0 -0 0 -0 -0 0 -0 -0 0 -0 -0 0 -0 -0 0 -0 -0 0 -0 -0 0 -0 -0 0 -0 -0 0 -0 -0 0 -0 -0 0 -0 
0 95.5 0 -0 0 -0 -0 0 -0 -0 0 -0 -0.92205 0.020712 -7.0105 -0 0 -0 -0 0 -0 6.7662 1.0753 -3.603 -14.533 -5.6919 8.0918 -0.67912 4.0026 0.18503 -0 0 -0 -3.2634 -0.2363 -6.1824 12.157 -19.529 -3.4433 13.436 -5.3696 -0.15491 -5.9892 4.7382 -3.3138 -5.9892 4.7382 -3.3138 -0 0 -0 -0 0 -0 -0 0 -0 -0 0 -0 -0 0 -0 -0 0 -0 -0 0 -0 -0 0 -0 -0 0 -0 -0 0 -0 -0 0 -0 -0 0 -0 
0 95.5 0 -0 0 -0 -0 0 -0 -0 0 -0 -0.84047 0.1812 -7.5275 -0 0 -0 -0 0 -0 6.6496 0.96261 -3.3066 -19.096 -11.418 4.692 -1.1275 2.7346 5.4659 -0 0 -0 -3.8376 -1.4985 -6.1247 17.216 -26.526 1.9381 18.087 -4.0521 -4.3364 -6.0479 5.0807 -3.0342 -6.0479 5.0807 -3.0342 -0 0 -0 -0 0 -0 -0 0 -0 -0 0 -0 -0 0 -0 -0 0 -0 -0 0 -0 -0 0 -0 -0 0 -0 -0 0 -0 -0 0 -0 -0 0 -0 
0 95.5 0 -0 0 -0 -0 0 -0 -0 0 -0 -0.61645 0.41608 -7.8739 -0 0 -0 -0 0 -0 6.4628 0.62307 -3.2887 -24.829 -18.011 0.2663 -3.0919 0.82824 11.817 -0 0 -0 -4.1838 -3.3523 -5.3641 22.675 -32.879 7.2951 25.148 -4.6191 -16.447 -6.3574 4.7774 -3.1637 -6.3574 4.7774 -3.1637 -0 0 -0 -0 0 -0 -0 0 -0 -0 0 -0 -0 0 -0 -0 0 -0 -0 0 -0 -0 0 -0 -0 0 -0 -0 0 -0 -0 0 -0 -0 0 -0 
0 95.5 0 -0 0 -0 -0 0 -0 -0 0 -0 -0.51816 0.54639 -7.8551 -0 0 -0 -0 0 -0 6.4161 0.3192 -3.6074 -31.929 -24.605 -3.3414 -6.2613 0.61788 16.763 -0 0 -0 -3.9686 -5.3747 -4.0604 28.438 -38.324 10.973 30.477 -6.5127 -31.442 -6.7646 4.5758 -3.4661 -6.7646 4.5758 -3.4661 -0 0 -0 -0 0 -0 -0 0 -0 -0 0 -0 -0 0 -0 -0 0 -0 -0 0 -0 -0 0 -0 -0 0 -0 -0 0 -0 -0 0 -0 -0 0 -0 
